<svg width="140" height="140" viewBox="0 0 140 140" fill="none" xmlns="http://www.w3.org/2000/svg">
<g clip-path="url(#clip0_767_26)">
<g opacity="0.5">
<path d="M70 139.563C108.384 139.563 139.5 108.447 139.5 70.0635C139.5 31.6797 108.384 0.563477 70 0.563477C31.6162 0.563477 0.5 31.6797 0.5 70.0635C0.5 108.447 31.6162 139.563 70 139.563Z" fill="url(#paint0_linear_767_26)"/>
</g>
<path d="M70.1354 137.654C107.71 137.654 138.17 107.194 138.17 69.6193C138.17 32.045 107.71 1.58496 70.1354 1.58496C32.5611 1.58496 2.10107 32.045 2.10107 69.6193C2.10107 107.194 32.5611 137.654 70.1354 137.654Z" fill="white"/>
<path d="M70.1991 137.923C83.493 137.944 96.4992 134.052 107.596 126.731C105.089 113.03 95.5477 112.249 95.5477 112.249H42.9348C42.9348 112.249 33.9317 112.988 31.1198 125.592C42.5603 133.639 56.2119 137.947 70.1991 137.923Z" fill="#8C3D3D"/>
<path d="M69.3383 100.717C87.4743 100.717 102.177 86.0151 102.177 67.879C102.177 49.743 87.4743 35.0408 69.3383 35.0408C51.2022 35.0408 36.5 49.743 36.5 67.879C36.5 86.0151 51.2022 100.717 69.3383 100.717Z" fill="#333333"/>
<path opacity="0.1" d="M58.878 95.5375H79.9192V112.371C79.9192 115.16 78.8113 117.836 76.8392 119.809C74.867 121.781 72.1921 122.89 69.4026 122.891C66.6123 122.891 63.9364 121.783 61.9634 119.81C59.9904 117.837 58.882 115.161 58.882 112.371V95.5375H58.878Z" fill="black"/>
<path d="M59.5452 94.7568H79.2601C79.437 94.7568 79.6067 94.8271 79.7318 94.9522C79.8569 95.0773 79.9272 95.247 79.9272 95.424V111.59C79.9274 112.972 79.6554 114.341 79.1265 115.618C78.5977 116.895 77.8224 118.055 76.8451 119.032C75.8677 120.009 74.7073 120.784 73.4303 121.313C72.1533 121.841 70.7847 122.113 69.4026 122.113C66.6124 122.113 63.9364 121.004 61.9634 119.031C59.9904 117.058 58.882 114.382 58.882 111.592V95.424C58.882 95.2477 58.9518 95.0786 59.076 94.9536C59.2002 94.8286 59.3689 94.7579 59.5452 94.7568Z" fill="#FDB797"/>
<path opacity="0.1" d="M58.9158 103.483C65.6972 106.017 73.1619 106.037 79.957 103.541V100.952H58.9158V103.483Z" fill="black"/>
<path d="M69.4763 104.891C86.1331 104.891 99.6361 91.3881 99.6361 74.7313C99.6361 58.0745 86.1331 44.5715 69.4763 44.5715C52.8195 44.5715 39.3165 58.0745 39.3165 74.7313C39.3165 91.3881 52.8195 104.891 69.4763 104.891Z" fill="#FDB797"/>
<path d="M45.8522 54.7296C45.8522 54.7296 46.0514 54.9287 46.4497 55.2553C49.7793 58.0612 67.0388 70.5891 94.4246 55.4405C91.6954 51.8649 88.1803 48.9649 84.1512 46.9648C80.1222 44.9648 75.687 43.9183 71.1889 43.9063C66.4128 43.5977 61.6312 44.4166 57.2299 46.2967C52.8287 48.1768 48.9313 51.0655 45.8522 54.7296Z" fill="#333333"/>
<path d="M47.644 39.85C49.1336 38.1693 51.2007 36.8629 53.668 36.0664C61.0542 33.6568 71.1924 35.8831 77.8198 32.5635C78.5924 34.3179 76.9874 36.1241 74.7092 36.0445C79.5583 37.5639 85.2637 39.0435 88.9258 37.0163C89.5611 39.8042 88.1034 42.3174 85.182 43.4903C89.4237 45.0038 93.3348 48.5783 92.6119 51.7845C92.134 53.9233 89.7085 55.3173 86.9902 55.7673C84.2719 56.2174 81.251 55.8549 78.3137 55.4128C69.7407 54.1204 38.4796 50.2033 47.644 39.85Z" fill="#333333"/>
<path d="M39.3045 79.9647C40.8541 79.9647 42.1104 77.6092 42.1104 74.7034C42.1104 71.7977 40.8541 69.4421 39.3045 69.4421C37.7548 69.4421 36.4986 71.7977 36.4986 74.7034C36.4986 77.6092 37.7548 79.9647 39.3045 79.9647Z" fill="#FDB797"/>
<path d="M99.6321 79.9647C101.182 79.9647 102.438 77.6092 102.438 74.7034C102.438 71.7977 101.182 69.4421 99.6321 69.4421C98.0824 69.4421 96.8262 71.7977 96.8262 74.7034C96.8262 77.6092 98.0824 79.9647 99.6321 79.9647Z" fill="#FDB797"/>
<path d="M58.878 112.249C59.0014 113.213 59.5312 121.195 69.2831 122.113C69.2831 122.113 65.4496 123.224 65.9156 125.632C65.9156 125.624 53.3976 122.864 58.878 112.249Z" fill="#1A1A1D"/>
<path d="M44.8062 56.0162C44.8062 56.0162 46.9569 63.018 53.2278 64.424C53.2278 64.424 52.943 63.3705 53.2278 62.7711C53.2278 62.7711 61.4682 67.9268 69.179 68.2275C69.179 68.2275 67.1975 66.7878 67.3688 65.1687C67.3688 65.1687 78.202 71.7643 86.1278 70.0855C86.1278 70.0855 84.1364 67.5325 84.5884 64.424C84.5884 64.424 87.4401 67.6879 93.3128 67.8671C93.3128 67.8671 96.6763 63.9102 94.3961 56.6535C92.1159 49.3968 61.1397 37.4643 44.8101 55.3352" fill="#333333"/>
<path d="M79.957 112.249C79.8336 113.213 79.3038 121.195 69.5519 122.113C69.5519 122.113 73.3854 123.224 72.9194 125.632C72.9114 125.624 85.4294 122.864 79.957 112.249Z" fill="#1A1A1D"/>
</g>
<defs>
<linearGradient id="paint0_linear_767_26" x1="70" y1="139.563" x2="70" y2="0.563477" gradientUnits="userSpaceOnUse">
<stop stop-color="#808080" stop-opacity="0.25"/>
<stop offset="0.54" stop-color="#808080" stop-opacity="0.12"/>
<stop offset="1" stop-color="#808080" stop-opacity="0.1"/>
</linearGradient>
<clipPath id="clip0_767_26">
<rect width="139" height="139" fill="white" transform="translate(0.5 0.563477)"/>
</clipPath>
</defs>
</svg>
