<svg id="visual" viewBox="0 0 1920 1080" width="1920" height="1080" xmlns="http://www.w3.org/2000/svg" xmlns:xlink="http://www.w3.org/1999/xlink" version="1.1"><rect x="0" y="0" width="1920" height="1080" fill="#ffffff"></rect><defs><linearGradient id="grad1_0" x1="43.8%" y1="0%" x2="100%" y2="100%"><stop offset="14.444444444444446%" stop-color="#ffffff" stop-opacity="1"></stop><stop offset="85.55555555555554%" stop-color="#ffffff" stop-opacity="1"></stop></linearGradient></defs><defs><linearGradient id="grad2_0" x1="0%" y1="0%" x2="56.3%" y2="100%"><stop offset="14.444444444444446%" stop-color="#ffffff" stop-opacity="1"></stop><stop offset="85.55555555555554%" stop-color="#ffffff" stop-opacity="1"></stop></linearGradient></defs><g transform="translate(1920, 0)"><path d="M0 432C-65.6 404.2 -131.2 376.3 -198.5 343.8C-265.8 311.3 -334.9 274.1 -374.1 216C-413.3 157.9 -422.7 79 -432 0L0 0Z" fill="#8C3D3D"></path></g><g transform="translate(0, 1080)"><path d="M0 -432C75.8 -420.9 151.7 -409.7 216 -374.1C280.3 -338.5 333.1 -278.4 367.2 -212C401.3 -145.6 416.6 -72.8 432 0L0 0Z" fill="#8C3D3D"></path></g></svg>