<svg width="357" height="277" viewBox="0 0 357 277" fill="none" xmlns="http://www.w3.org/2000/svg">
    <g clip-path="url(#pb03hyacua)" fill="#8C3D3D">
        <path d="M142.82.5H98.193L53.569 133.988h44.624L142.82.5zM44.623.5H0v276h44.623V.5zM178.498.5v51.95h44.415l-.145-8.864 89.605.256v189.492l-96.102-.921.032-9.432h-37.805V276.5H357V.5H178.498z"/>
        <path d="m152.649 205.366 13.841-24.806-4.017 7.199 24.971-44.747H142.82l-22.314 39.985-22.313-39.985H53.569l44.624 79.969V276.5H143v-53.843l9.648-17.291z"/>
        <path d="M278.043 64.955H144.14v70.206h41.867V99.606l56.832.452v70.205h-58.494l-19.673 35.103h113.371V64.956z"/>
    </g>
    <defs>
        <clipPath id="pb03hyacua">
            <path fill="#fff" transform="translate(0 .5)" d="M0 0h357v276H0z"/>
        </clipPath>
    </defs>
</svg>
