<svg id="visual" viewBox="0 0 1920 1080" width="1920" height="1080" xmlns="http://www.w3.org/2000/svg" xmlns:xlink="http://www.w3.org/1999/xlink" version="1.1"><g><g transform="translate(1292 806)"><path d="M205.4 -115.3C248.6 -43.8 253.9 52.9 213.3 128.2C172.8 203.5 86.4 257.4 1.7 256.4C-83 255.5 -166.1 199.6 -206.9 124.2C-247.7 48.8 -246.3 -46.3 -204.7 -116.8C-163.2 -187.3 -81.6 -233.3 -0.2 -233.1C81.1 -233 162.3 -186.8 205.4 -115.3Z" stroke="#323232" fill="none" stroke-width="20"></path></g><g transform="translate(620 1054)"><path d="M169.4 -98.6C202.1 -41.3 199 35.9 164.8 93.9C130.6 152 65.3 190.9 -1.6 191.8C-68.5 192.7 -137 155.7 -170.7 97.9C-204.5 40.2 -203.4 -38.3 -169.1 -96.6C-134.9 -154.8 -67.4 -192.9 0.5 -193.2C68.4 -193.4 136.8 -156 169.4 -98.6Z" stroke="#323232" fill="none" stroke-width="20"></path></g><g transform="translate(782 112)"><path d="M78.2 -45.4C93.6 -18.4 93.1 17.5 77.4 43.8C61.7 70.1 30.8 86.8 1 86.2C-28.9 85.6 -57.8 67.8 -72.4 42.2C-87.1 16.5 -87.4 -17.1 -73 -43.5C-58.5 -69.9 -29.3 -89.1 1.1 -89.7C31.4 -90.3 62.8 -72.3 78.2 -45.4Z" stroke="#323232" fill="none" stroke-width="20"></path></g><g transform="translate(115 631)"><path d="M211.3 -119.2C252.4 -50.8 249.5 45.8 207 114.5C164.5 183.2 82.2 224 3.4 222C-75.4 220.1 -150.9 175.4 -190.2 108.6C-229.5 41.7 -232.7 -47.2 -194.9 -113.7C-157.2 -180.1 -78.6 -224.1 3.2 -226C85.1 -227.8 170.1 -187.6 211.3 -119.2Z" stroke="#323232" fill="none" stroke-width="20"></path></g><g transform="translate(1788 47)"><path d="M177.3 -104.9C212 -42.1 210.4 39.2 174.8 102.2C139.1 165.2 69.6 209.9 0.4 209.6C-68.7 209.4 -137.4 164.2 -171.3 102.1C-205.3 40.1 -204.6 -38.8 -170.3 -101.4C-135.9 -163.9 -68 -210.1 1.6 -211.1C71.2 -212 142.5 -167.7 177.3 -104.9Z" stroke="#323232" fill="none" stroke-width="20"></path></g><g transform="translate(1913 941)"><path d="M116.4 -69.1C140 -26.2 141.1 27.9 117.9 70.7C94.7 113.5 47.4 145 -1.1 145.7C-49.6 146.3 -99.1 116.1 -123.1 72.8C-147.1 29.5 -145.6 -26.8 -120.8 -70.4C-96 -114.1 -48 -145 -0.8 -144.5C46.3 -144 92.7 -112.1 116.4 -69.1Z" stroke="#323232" fill="none" stroke-width="20"></path></g></g></svg>