<svg id="visual" viewBox="0 0 1920 100" width="1920" height="100" xmlns="http://www.w3.org/2000/svg" xmlns:xlink="http://www.w3.org/1999/xlink" version="1.1"><path d="M0 50L40 46.5C80 43 160 36 240 40.7C320 45.3 400 61.7 480 65.7C560 69.7 640 61.3 720 52.8C800 44.3 880 35.7 960 31.7C1040 27.7 1120 28.3 1200 33.5C1280 38.7 1360 48.3 1440 53.3C1520 58.3 1600 58.7 1680 57.2C1760 55.7 1840 52.3 1880 50.7L1920 49L1920 101L1880 101C1840 101 1760 101 1680 101C1600 101 1520 101 1440 101C1360 101 1280 101 1200 101C1120 101 1040 101 960 101C880 101 800 101 720 101C640 101 560 101 480 101C400 101 320 101 240 101C160 101 80 101 40 101L0 101Z" fill="#323232" stroke-linecap="round" stroke-linejoin="miter"></path></svg>