<svg id="visual" viewBox="0 0 1920 200" width="1920" height="200" xmlns="http://www.w3.org/2000/svg" xmlns:xlink="http://www.w3.org/1999/xlink" version="1.1"><path d="M0 140L26.7 134.2C53.3 128.3 106.7 116.7 160 110.5C213.3 104.3 266.7 103.7 320 94.2C373.3 84.7 426.7 66.3 480 75.3C533.3 84.3 586.7 120.7 640 130C693.3 139.3 746.7 121.7 800 108.8C853.3 96 906.7 88 960 89.8C1013.3 91.7 1066.7 103.3 1120 112.7C1173.3 122 1226.7 129 1280 116.8C1333.3 104.7 1386.7 73.3 1440 61.7C1493.3 50 1546.7 58 1600 77C1653.3 96 1706.7 126 1760 139.5C1813.3 153 1866.7 150 1893.3 148.5L1920 147L1920 0L1893.3 0C1866.7 0 1813.3 0 1760 0C1706.7 0 1653.3 0 1600 0C1546.7 0 1493.3 0 1440 0C1386.7 0 1333.3 0 1280 0C1226.7 0 1173.3 0 1120 0C1066.7 0 1013.3 0 960 0C906.7 0 853.3 0 800 0C746.7 0 693.3 0 640 0C586.7 0 533.3 0 480 0C426.7 0 373.3 0 320 0C266.7 0 213.3 0 160 0C106.7 0 53.3 0 26.7 0L0 0Z" fill="#323232" stroke-linecap="round" stroke-linejoin="miter"></path></svg>