<svg xmlns="http://www.w3.org/2000/svg" version="1.1" xmlns:xlink="http://www.w3.org/1999/xlink" xmlns:svgjs="http://svgjs.com/svgjs" width="1920" height="1080" preserveAspectRatio="none" viewBox="0 0 1920 1080"><g mask="url(&quot;#SvgjsMask1413&quot;)" fill="none"><path d="M96.98 90.38L192.24 145.38L192.24 255.38L96.98 310.38L1.71 255.38L1.71 145.38zM1.71 915.38L96.98 970.38L96.98 1080.38L1.71 1135.38L-93.56 1080.38L-93.56 970.38zM96.98 1080.38L192.24 1135.38L192.24 1245.38L96.98 1300.38L1.71 1245.38L1.71 1135.38zM287.51 90.38L382.77 145.38L382.77 255.38L287.51 310.38L192.24 255.38L192.24 145.38zM287.51 750.38L382.77 805.38L382.77 915.38L287.51 970.38L192.24 915.38L192.24 805.38zM192.24 915.38L287.51 970.38L287.51 1080.38L192.24 1135.38L96.98 1080.38L96.98 970.38zM382.77 -74.62L478.04 -19.62L478.04 90.38L382.77 145.38L287.51 90.38L287.51 -19.62zM382.77 255.38L478.04 310.38L478.04 420.38L382.77 475.38L287.51 420.38L287.51 310.38zM382.77 585.38L478.04 640.38L478.04 750.38L382.77 805.38L287.51 750.38L287.51 640.38zM478.04 1080.38L573.3 1135.38L573.3 1245.38L478.04 1300.38L382.77 1245.38L382.77 1135.38zM668.57 420.38L763.83 475.38L763.83 585.38L668.57 640.38L573.3 585.38L573.3 475.38zM668.57 750.38L763.83 805.38L763.83 915.38L668.57 970.38L573.3 915.38L573.3 805.38zM573.3 915.38L668.57 970.38L668.57 1080.38L573.3 1135.38L478.04 1080.38L478.04 970.38zM859.1 90.38L954.37 145.38L954.37 255.38L859.1 310.38L763.83 255.38L763.83 145.38zM859.1 1080.38L954.37 1135.38L954.37 1245.38L859.1 1300.38L763.83 1245.38L763.83 1135.38zM1049.63 90.38L1144.9 145.38L1144.9 255.38L1049.63 310.38L954.37 255.38L954.37 145.38zM954.37 255.38L1049.63 310.38L1049.63 420.38L954.37 475.38L859.1 420.38L859.1 310.38zM1049.63 420.38L1144.9 475.38L1144.9 585.38L1049.63 640.38L954.37 585.38L954.37 475.38zM1049.63 750.38L1144.9 805.38L1144.9 915.38L1049.63 970.38L954.37 915.38L954.37 805.38zM954.37 915.38L1049.63 970.38L1049.63 1080.38L954.37 1135.38L859.1 1080.38L859.1 970.38zM1049.63 1080.38L1144.9 1135.38L1144.9 1245.38L1049.63 1300.38L954.37 1245.38L954.37 1135.38zM1144.9 -74.62L1240.16 -19.62L1240.16 90.38L1144.9 145.38L1049.63 90.38L1049.63 -19.62zM1240.16 90.38L1335.43 145.38L1335.43 255.38L1240.16 310.38L1144.9 255.38L1144.9 145.38zM1144.9 915.38L1240.16 970.38L1240.16 1080.38L1144.9 1135.38L1049.63 1080.38L1049.63 970.38zM1240.16 1080.38L1335.43 1135.38L1335.43 1245.38L1240.16 1300.38L1144.9 1245.38L1144.9 1135.38zM1430.69 420.38L1525.96 475.38L1525.96 585.38L1430.69 640.38L1335.43 585.38L1335.43 475.38zM1430.69 1080.38L1525.96 1135.38L1525.96 1245.38L1430.69 1300.38L1335.43 1245.38L1335.43 1135.38zM1525.96 -74.62L1621.22 -19.62L1621.22 90.38L1525.96 145.38L1430.69 90.38L1430.69 -19.62zM1525.96 255.38L1621.22 310.38L1621.22 420.38L1525.96 475.38L1430.69 420.38L1430.69 310.38zM1621.22 420.38L1716.49 475.38L1716.49 585.38L1621.22 640.38L1525.96 585.38L1525.96 475.38zM1621.22 750.38L1716.49 805.38L1716.49 915.38L1621.22 970.38L1525.96 915.38L1525.96 805.38zM1716.49 -74.62L1811.75 -19.62L1811.75 90.38L1716.49 145.38L1621.22 90.38L1621.22 -19.62zM1716.49 915.38L1811.75 970.38L1811.75 1080.38L1716.49 1135.38L1621.22 1080.38L1621.22 970.38zM1907.02 -74.62L2002.29 -19.62L2002.29 90.38L1907.02 145.38L1811.75 90.38L1811.75 -19.62zM2002.29 420.38L2097.55 475.38L2097.55 585.38L2002.29 640.38L1907.02 585.38L1907.02 475.38zM1907.02 585.38L2002.29 640.38L2002.29 750.38L1907.02 805.38L1811.75 750.38L1811.75 640.38zM2002.29 750.38L2097.55 805.38L2097.55 915.38L2002.29 970.38L1907.02 915.38L1907.02 805.38z" stroke="rgba(50, 50, 50, 1)" stroke-width="2"></path></g><defs><mask id="SvgjsMask1413"><rect width="1920" height="1080" fill="#ffffff"></rect></mask></defs></svg>